<?xml version="1.0" encoding="iso-8859-1"?>
<!-- Generator: Adobe Illustrator 19.0.0, SVG Export Plug-In . SVG Version: 6.00 Build 0)  -->
<svg version="1.1" id="Capa_1" xmlns="http://www.w3.org/2000/svg" xmlns:xlink="http://www.w3.org/1999/xlink" x="0px" y="0px"
	 viewBox="0 0 512.001 512.001" style="enable-background:new 0 0 512.001 512.001;" xml:space="preserve">
<polygon style="fill:#901C0F;" points="256,471 238.676,441.022 256,256 469.851,41 504.5,41 "/>
<polygon style="fill:#E0230D;" points="7.5,41 469.851,41 238.676,441.022 "/>
<path d="M510.996,37.252c-1.34-2.321-3.816-3.751-6.496-3.751H7.5c-2.68,0-5.156,1.43-6.496,3.751s-1.339,5.181,0.002,7.501
	l116.745,202.012c2.072,3.587,6.66,4.813,10.246,2.741c3.586-2.073,4.813-6.66,2.74-10.246L20.497,48.5h471.006L256,456.011
	L145.749,265.235c-2.073-3.587-6.66-4.813-10.246-2.741s-4.813,6.66-2.74,10.246l116.743,202.012
	c1.341,2.319,3.815,3.747,6.494,3.747c2.679,0,5.153-1.428,6.493-3.747l248.5-430C512.335,42.432,512.336,39.573,510.996,37.252z"/>
<g>
</g>
<g>
</g>
<g>
</g>
<g>
</g>
<g>
</g>
<g>
</g>
<g>
</g>
<g>
</g>
<g>
</g>
<g>
</g>
<g>
</g>
<g>
</g>
<g>
</g>
<g>
</g>
<g>
</g>
</svg>
