<svg height="511pt" viewBox="-10 0 511 511.509" width="511pt" xmlns="http://www.w3.org/2000/svg"><path d="M255.219 5.566c-3.54-7.421-15.7-7.421-19.242 0L1.309 496.234a10.687 10.687 0 00.597 10.282 10.616 10.616 0 009.024 4.992h469.336c3.668 0 7.082-1.875 9.023-4.969 1.961-3.113 2.195-6.996.598-10.281zm0 0" fill="#4caf50"/><path d="M480.266 511.508H10.93a10.648 10.648 0 01-9.024-4.969c-1.96-3.113-2.195-6.976-.597-10.281L235.977 5.59c3.543-7.426 15.703-7.426 19.242 0l234.668 490.668a10.688 10.688 0 01-.598 10.281 10.648 10.648 0 01-9.023 4.969zM27.848 490.176h435.48L245.598 34.902zm0 0"/></svg>